<svg width="288" height="292" viewBox="0 0 288 292" fill="none" xmlns="http://www.w3.org/2000/svg">
<g clip-path="url(#clip0_9_88)">
<path d="M64.5939 48.7643L62.3982 60.3037L73.3449 63.393L71.9848 51.0734L64.5939 48.7643Z" fill="#A0616A"/>
<path d="M195.435 130.949H82.5399C69.7376 130.949 59.3592 141.339 59.3592 154.155V263.742C59.3592 276.558 69.7376 286.947 82.5399 286.947H195.435C208.237 286.947 218.616 276.558 218.616 263.742V154.155C218.616 141.339 208.237 130.949 195.435 130.949V130.949Z" fill="white"/>
<path d="M195.435 287.496H82.5399C69.4555 287.496 58.8103 276.84 58.8103 263.742V154.155C58.8103 141.056 69.4555 130.4 82.5399 130.4H195.435C208.519 130.4 219.165 141.056 219.165 154.155V263.742C219.165 276.84 208.519 287.496 195.435 287.496H195.435ZM82.5399 131.499C70.0607 131.499 59.9081 141.662 59.9081 154.155V263.742C59.9081 276.234 70.0607 286.397 82.5399 286.397H195.435C207.914 286.397 218.067 276.234 218.067 263.742V154.155C218.067 141.662 207.914 131.499 195.435 131.499H82.5399V131.499Z" fill="#17252A"/>
<path d="M203.613 178.46H158.235C156.31 178.46 154.744 176.892 154.744 174.965C154.744 173.039 156.31 171.471 158.235 171.471H203.613C205.537 171.471 207.103 173.039 207.103 174.965C207.103 176.892 205.537 178.46 203.613 178.46H203.613Z" fill="#3AAFA9"/>
<path d="M161.042 205.938H116.933C115.821 205.938 114.916 205.033 114.916 203.919C114.916 202.806 115.821 201.901 116.933 201.901H161.042C162.154 201.901 163.059 202.806 163.059 203.919C163.059 205.033 162.154 205.938 161.042 205.938V205.938Z" fill="#3AAFA9"/>
<path d="M98.6982 138.454H73.5152C73.4211 138.454 73.3449 138.531 73.3449 138.625V141.56C73.3449 141.654 73.4211 141.73 73.5152 141.73H98.6982C98.7922 141.73 98.8685 141.654 98.8685 141.56V138.625C98.8685 138.531 98.7922 138.454 98.6982 138.454Z" fill="#3AAFA9"/>
<path d="M183.523 141.73C184.968 141.73 186.141 140.557 186.141 139.11C186.141 137.662 184.968 136.489 183.523 136.489C182.077 136.489 180.905 137.662 180.905 139.11C180.905 140.557 182.077 141.73 183.523 141.73Z" fill="#17252A"/>
<path d="M190.722 141.73C192.167 141.73 193.339 140.557 193.339 139.11C193.339 137.662 192.167 136.489 190.722 136.489C189.276 136.489 188.104 137.662 188.104 139.11C188.104 140.557 189.276 141.73 190.722 141.73Z" fill="#17252A"/>
<path d="M197.921 141.73C199.366 141.73 200.538 140.557 200.538 139.11C200.538 137.662 199.366 136.489 197.921 136.489C196.475 136.489 195.303 137.662 195.303 139.11C195.303 140.557 196.475 141.73 197.921 141.73Z" fill="#17252A"/>
<path d="M82.2651 216.745C82.2651 217.108 82.5561 217.399 82.9184 217.399H195.057C195.419 217.399 195.71 217.108 195.71 216.745C195.71 216.383 195.419 216.091 195.057 216.091H82.9184C82.5561 216.091 82.2651 216.383 82.2651 216.745Z" fill="#17252A"/>
<path d="M116.465 55.4534C118.853 53.4787 121.805 53.1111 123.061 54.6323C124.316 56.1534 123.398 58.9867 121.009 60.9618C120.066 61.7639 118.945 62.3281 117.739 62.6074L107.518 70.8464L103.758 65.9627L114.233 58.359C114.735 57.2259 115.5 56.2296 116.465 55.4534H116.465Z" fill="#A0616A"/>
<path d="M57.3906 74.0428C57.3855 73.6785 57.3889 70.5002 59.7394 68.4913C62.4394 66.1837 66.2494 67.1177 67.5857 67.4453C70.6726 68.2021 70.9258 69.5277 73.8247 70.8897C79.2483 73.438 72.4527 72.1337 75.6799 71.3166C76.797 71.0337 92.8677 69.918 96.868 67.4533C104.648 62.6598 109.949 59.753 109.949 59.753L113.415 66.6911C113.415 66.6911 108.404 73.6662 101.351 78.8334C94.1167 84.1338 90.4995 86.784 85.0024 87.808C84.529 87.8962 72.8865 89.8861 63.5095 82.873C61.3706 81.2734 57.4517 78.3425 57.3906 74.0428V74.0429V74.0428Z" fill="#DEF2F1"/>
<path d="M68.1405 56.3975C74.8078 56.3975 80.2127 50.9869 80.2127 44.3127C80.2127 37.6384 74.8078 32.2278 68.1405 32.2278C61.4733 32.2278 56.0684 37.6384 56.0684 44.3127C56.0684 50.9869 61.4733 56.3975 68.1405 56.3975Z" fill="#A0616A"/>
<path d="M162.685 125.503L150.252 112.764L143.834 119.465L153.097 131.68L162.285 132.732L162.685 125.503Z" fill="#A0616A"/>
<path d="M91.6941 101.614C92.4213 101.674 94.7322 102.138 96.9409 100.921C98.4483 100.091 99.2214 98.8564 99.4825 98.4639C102.722 93.5936 115.155 85.9989 126.314 85.5315C128.841 85.4257 130.504 85.7188 132.016 86.5077C134.16 87.6263 135.016 89.2287 137.736 92.9823C139.224 95.0356 140.871 96.9699 142.377 99.0101C151.193 110.954 154.536 111.892 154.194 115.721C153.815 119.969 149.238 124 146.196 123.535C144.95 123.344 144.467 122.477 142.803 120.721C137.922 115.574 135.903 116.525 132.428 112.582C128.372 107.979 128.903 104.162 126.786 104.015C124.823 103.878 123.989 107.134 119.799 111.46C117.882 113.439 116.516 114.347 112.356 117.235C96.1576 128.485 95.899 129.276 92.6299 130.173C91.1996 130.566 81.048 133.352 77.4317 128.918C71.7727 121.98 85.1418 101.069 91.6941 101.614L91.6941 101.614Z" fill="#17252A"/>
<path d="M158.884 128.382C159.798 127.971 160.867 127.491 161.211 126.386C161.444 125.638 161.31 124.716 160.829 124.079C160.274 123.343 159.452 123.246 159.486 123.116C159.536 122.918 161.479 122.996 163.612 123.75C164.014 123.893 165.838 124.56 168.157 126.372C170.015 127.825 169.765 128.116 170.93 128.953C174.507 131.524 177.862 129.498 179.798 131.908C180.545 132.839 180.863 134.16 180.549 135.228C179.918 137.372 176.848 138.111 175.17 138.492C171.129 139.409 168.071 138.66 164.877 138.121C154.016 136.289 147.913 137.958 147.096 135.439C146.942 134.962 147.193 135.003 148.03 131.504C148.857 128.052 148.83 127.103 149.534 126.827C150.593 126.411 151.305 128.304 153.974 128.952C156.34 129.526 158.292 128.649 158.884 128.382L158.884 128.382Z" fill="#17252A"/>
<path d="M140.582 167.18L137.441 149.65L128.371 151.587L129.183 166.901L136.196 172.937L140.582 167.18Z" fill="#A0616A"/>
<path d="M95.2412 107.506C95.809 107.965 97.4611 109.647 99.9712 109.882C101.684 110.043 103.016 109.456 103.453 109.278C108.865 107.069 123.413 107.774 132.909 113.66C135.059 114.993 136.271 116.17 137.079 117.673C138.226 119.803 138.035 121.61 138.18 126.246C138.26 128.781 138.537 131.307 138.639 133.842C139.234 148.681 141.474 151.336 139.043 154.312C136.347 157.614 130.298 158.377 128.042 156.282C127.118 155.424 127.205 154.435 126.813 152.047C125.662 145.044 123.458 144.696 122.794 139.48C122.019 133.391 124.6 130.531 122.931 129.219C121.384 128.003 118.867 130.228 112.974 131.452C110.277 132.012 108.638 131.995 103.575 132.047C83.861 132.25 83.2036 132.759 79.9952 131.664C78.5915 131.184 68.6287 127.783 68.1235 122.082C67.3329 113.16 90.1251 103.372 95.2412 107.506L95.2412 107.506V107.506Z" fill="#17252A"/>
<path d="M135.822 167.425C136.809 167.599 137.963 167.803 138.868 167.081C139.48 166.593 139.886 165.755 139.845 164.958C139.799 164.037 139.173 163.495 139.273 163.406C139.426 163.271 140.991 164.427 142.332 166.25C142.585 166.594 143.72 168.171 144.622 170.975C145.345 173.221 144.975 173.321 145.469 174.669C146.987 178.807 150.9 179.017 151.149 182.099C151.245 183.289 150.768 184.561 149.909 185.268C148.183 186.688 145.229 185.573 143.627 184.945C139.768 183.433 137.658 181.094 135.317 178.853C127.358 171.231 121.373 169.182 122.11 166.638C122.249 166.157 122.434 166.332 125.09 163.908C127.71 161.515 128.22 160.715 128.957 160.882C130.068 161.133 129.594 163.1 131.44 165.137C133.075 166.941 135.182 167.313 135.822 167.425H135.822Z" fill="#17252A"/>
<path d="M69.7864 46.623C70.2564 44.94 69.6661 44.3267 70.2677 43.5713C70.2677 43.5713 70.5099 43.2673 72.6744 42.447C72.0358 38.7377 72.5139 38.1105 72.5139 38.1105C73.065 37.3876 74.169 37.2128 74.9206 37.3074C76.5101 37.5074 76.7915 38.9458 77.8086 38.9135C79.2136 38.8689 80.8988 36.0535 80.3757 33.6133C79.949 31.6228 78.1093 30.1445 77.6482 30.401C77.1909 30.6553 75.5449 29.5339 74.9206 29.7586C74.4943 29.912 72.4876 29.7079 72.0326 29.9192C71.5357 30.15 70.1127 31.5868 69.9767 31.4058C69.0312 30.1477 69.0514 29.7085 68.5028 29.4373C67.5309 28.9569 66.4742 29.8449 64.6522 30.7222C60.9033 32.5274 59.8056 31.4506 58.074 32.9708C57.1992 33.7388 56.7302 35.2065 55.8277 38.1105C54.5657 42.1717 53.9347 44.2023 54.5442 46.1411C55.1658 48.1184 56.0811 47.688 57.4322 50.4777C58.9361 53.583 58.4178 55.388 59.8389 56.0991C60.9372 56.6488 62.7022 56.299 63.3686 55.2961C64.5096 53.579 61.5605 51.2563 62.5664 48.5503C63.1839 46.8893 65.0886 45.6298 66.2566 45.9805C67.5774 46.3771 67.6746 48.7476 68.5029 48.7109C69.2121 48.6795 69.7045 46.9162 69.7864 46.623L69.7864 46.623L69.7864 46.623Z" fill="#17252A"/>
<path d="M60.6411 58.1871C63.1115 55.4143 73.1739 58.2842 74.1184 62.6843C74.5069 64.4941 73.0728 65.2583 73.4766 67.3421C74.0673 70.39 77.4118 70.1822 79.8944 73.2848C83.4188 77.6895 79.7879 81.9953 83.745 89.3461C84.5906 90.9169 85.3033 92.2408 86.7935 93.5221C90.213 96.4622 93.3954 95.4539 95.1366 98.1799C96.4387 100.218 95.9037 102.731 95.7784 103.319C95.2645 105.733 93.8717 106.321 92.8904 108.298C91.2576 111.589 93.1063 114.004 93.2112 117.935C93.3426 122.854 90.7316 129.672 85.5099 131.909C79.6436 134.422 72.5684 130.259 69.1446 126.127C67.1017 123.66 66.5086 121.386 65.6148 118.578C61.6204 106.029 59.3637 107.164 56.3091 97.2162C52.817 85.8443 52.1305 72.5216 56.3091 68.3058C56.8629 67.747 58.3871 66.4554 59.3575 64.1298C60.6633 61.0004 59.5352 59.4283 60.6411 58.1871H60.6411V58.1871Z" fill="#DEF2F1"/>
<path d="M97.1435 122.735C99.0589 125.171 99.3557 128.135 97.8068 129.355C96.2579 130.574 93.4502 129.588 91.5345 127.151C90.7559 126.188 90.2191 125.052 89.9688 123.839L81.9838 113.415L86.1098 110.264L94.2949 120.432C95.4146 120.961 96.3914 121.75 97.1435 122.735H97.1435H97.1435Z" fill="#A0616A"/>
<path d="M67.8995 68.7545C68.2548 68.6751 71.3637 68.0299 73.8078 69.9235C76.6154 72.0987 76.4794 76.023 76.4317 77.3994C76.3215 80.579 75.0768 81.0976 74.3364 84.2164C72.951 90.0514 75.5893 95.4741 77.0469 98.47C77.5514 99.507 79.1723 102.68 82.3989 106.098C88.6741 112.744 94.2733 116.241 94.2733 116.241L88.2582 121.593C88.2582 121.593 78.6769 118.67 72.1847 112.813C65.5251 106.805 55.2839 85.5475 53.1609 80.3693C52.978 79.9234 55.5679 87.1732 60.5128 76.5527C61.6407 74.1302 63.7073 69.6917 67.8996 68.7545H67.8995Z" fill="#DEF2F1"/>
<path d="M150.373 231.715C146.55 232.301 143.753 234.751 144.126 237.187C144.5 239.623 147.901 241.121 151.726 240.534C153.257 240.32 154.714 239.742 155.977 238.849L172.145 236.159L171.066 229.761L154.934 232.046C153.462 231.573 151.898 231.459 150.373 231.715H150.373Z" fill="#FFB6B6"/>
<path d="M220.044 211.773L213.775 225.09L182.259 235.71L156.107 237.107L155.452 230.819L183.795 224.886L212.878 211.129L220.044 211.773Z" fill="#DEF2F1"/>
<path d="M161.917 262.338L156.289 276.589L149.005 271.618L153.309 256.703L161.917 262.338Z" fill="#FFB6B6"/>
<path d="M138.41 257.035L123.511 271.286L129.471 277.583L144.701 265.652L138.41 257.035Z" fill="#FFB6B6"/>
<path d="M222.836 210.634L222.671 209.474L218.863 202.017L206.282 205.331L208.6 215.606L222.836 210.634Z" fill="#FFB6B6"/>
<path d="M217.539 260.349L217.926 265.327C217.926 265.327 219.525 286.201 206.613 287.858C193.701 289.515 188.073 291.172 180.458 278.246L168.539 257.035L161.577 265.327L152.316 258.029C152.316 258.029 158.937 232.177 164.235 231.183C164.897 231.059 165.559 230.997 166.211 230.983C170.596 230.891 174.73 233.039 177.354 236.558L192.377 256.703L197.84 254.217L217.539 260.349V260.349Z" fill="#17252A"/>
<path d="M146.025 275.926L149.005 270.292L157.613 276.258C157.613 276.258 159.599 283.549 156.62 284.544C153.64 285.538 145.363 284.212 145.363 284.212C145.363 284.212 130.133 287.526 129.802 284.544C129.471 281.561 136.755 280.898 136.755 280.898L146.025 275.926L146.025 275.926H146.025Z" fill="#17252A"/>
<path d="M178.471 271.949L155.461 257.435L143.708 267.972L135.762 258.692C135.762 258.692 150.329 237.149 154.633 236.154C158.937 235.16 165.89 234.497 165.89 234.497L187.079 254.052L178.471 271.949V271.949Z" fill="#17252A"/>
<path d="M123.18 269.96L130.795 278.246L129.791 279.106C129.791 279.106 127.816 287.719 123.18 284.806C118.545 281.892 118.214 281.229 118.214 281.229C118.214 281.229 104.971 284.212 103.647 278.909C102.322 273.606 105.964 274.601 105.964 274.601L109.271 276.589L123.18 269.96L123.18 269.96Z" fill="#17252A"/>
<path d="M210.255 208.977C216.106 208.977 220.85 204.229 220.85 198.371C220.85 192.514 216.106 187.765 210.255 187.765C204.404 187.765 199.661 192.514 199.661 198.371C199.661 204.229 204.404 208.977 210.255 208.977Z" fill="#FFB6B6"/>
<path d="M207.772 213.451L223.002 208.811C223.002 208.811 228.961 222.731 227.968 229.029C226.975 235.326 217.926 265.327 217.926 265.327L197.84 254.217C197.84 254.217 197.509 247.589 196.515 244.606C195.522 241.623 192.377 232.509 199.329 224.886C206.282 217.263 207.772 213.451 207.772 213.451L207.772 213.451Z" fill="#DEF2F1"/>
<path d="M174.252 283.046C171.774 286.018 171.297 289.708 173.187 291.287C175.077 292.866 178.618 291.735 181.097 288.762C182.103 287.587 182.814 286.189 183.17 284.683L193.513 271.955L188.475 267.874L177.891 280.273C176.474 280.893 175.227 281.844 174.252 283.046L174.252 283.046Z" fill="#FFB6B6"/>
<path d="M219.454 220.138L223.054 234.412L205.435 262.644L187.449 280.74L181.62 275.898L199.759 253.305L213.508 224.194L219.454 220.138Z" fill="#DEF2F1"/>
<path d="M200.488 196.548C203.205 196.542 203.36 196.56 203.799 196.548C207.169 196.459 208.05 195.132 209.759 195.223C212.807 195.384 208.783 210.686 207.11 217.76C205.469 224.698 211.015 230.915 211.414 231.349C217.044 237.478 226.933 238.599 228.63 235.989C230.004 233.876 225.136 230.664 226.313 226.046C227.463 221.532 232.774 222.012 234.259 217.76C235.813 213.307 230.589 211.06 227.306 200.194C225.421 193.953 225.754 192.791 223.995 188.925C219.293 178.594 196.245 182.993 198.833 192.571C199.333 194.424 198.001 196.554 200.488 196.548V196.548Z" fill="#17252A"/>
<path d="M234.319 70.6436H122.971C119.823 70.6436 117.261 68.0789 117.261 64.9269V5.71667C117.261 2.56467 119.823 0 122.971 0H234.319C237.468 0 240.03 2.56467 240.03 5.71667V64.9269C240.03 68.0789 237.468 70.6436 234.319 70.6436Z" fill="white"/>
<path d="M234.319 70.6436H122.971C119.823 70.6436 117.261 68.0789 117.261 64.9269V5.71667C117.261 2.56467 119.823 0 122.971 0H234.319C237.468 0 240.03 2.56467 240.03 5.71667V64.9269C240.03 68.0789 237.468 70.6436 234.319 70.6436ZM122.971 0.954643C120.348 0.954643 118.214 3.09094 118.214 5.71667V64.9269C118.214 67.5526 120.348 69.6889 122.971 69.6889H234.319C236.942 69.6889 239.076 67.5526 239.076 64.9269V5.71667C239.076 3.09094 236.942 0.954643 234.319 0.954643H122.971Z" fill="#17252A"/>
<path d="M225.726 7.15982C226.516 7.15982 227.156 6.51871 227.156 5.72786C227.156 4.93701 226.516 4.2959 225.726 4.2959C224.936 4.2959 224.295 4.93701 224.295 5.72786C224.295 6.51871 224.936 7.15982 225.726 7.15982Z" fill="#17252A"/>
<path d="M229.54 7.15982C230.33 7.15982 230.971 6.51871 230.971 5.72786C230.971 4.93701 230.33 4.2959 229.54 4.2959C228.75 4.2959 228.11 4.93701 228.11 5.72786C228.11 6.51871 228.75 7.15982 229.54 7.15982Z" fill="#17252A"/>
<path d="M233.355 7.15982C234.145 7.15982 234.785 6.51871 234.785 5.72786C234.785 4.93701 234.145 4.2959 233.355 4.2959C232.565 4.2959 231.924 4.93701 231.924 5.72786C231.924 6.51871 232.565 7.15982 233.355 7.15982Z" fill="#17252A"/>
<path d="M125.367 28.878C124.972 28.878 124.651 29.1991 124.651 29.5939C124.651 29.7865 124.726 29.9645 124.861 30.096C124.997 30.2353 125.175 30.3099 125.367 30.3099H232.401C232.795 30.3099 233.116 29.9888 233.116 29.5939C233.116 29.4014 233.042 29.2234 232.907 29.0919C232.771 28.9525 232.593 28.878 232.401 28.878H125.367Z" fill="#E6E6E6"/>
<path d="M219.05 28.6393V30.5486H125.367C125.104 30.5486 124.866 30.4435 124.694 30.2669C124.518 30.0951 124.413 29.8564 124.413 29.5939C124.413 29.0689 124.842 28.6393 125.367 28.6393H219.05Z" fill="#2B7A78"/>
<path d="M231.209 25.0594H221.673C220.621 25.0594 219.765 24.2031 219.765 23.1501C219.765 22.0971 220.621 21.2408 221.673 21.2408H231.209C232.261 21.2408 233.116 22.0971 233.116 23.1501C233.116 24.2031 232.261 25.0594 231.209 25.0594Z" fill="#DEF2F1"/>
<path d="M168.746 15.0356H126.082C125.03 15.0356 124.175 14.1793 124.175 13.1263C124.175 12.0733 125.03 11.217 126.082 11.217H168.746C169.797 11.217 170.653 12.0733 170.653 13.1263C170.653 14.1793 169.797 15.0356 168.746 15.0356Z" fill="#DEF2F1"/>
<path d="M125.367 50.3574C124.972 50.3574 124.651 50.6786 124.651 51.0734C124.651 51.2659 124.726 51.444 124.861 51.5754C124.997 51.7148 125.175 51.7894 125.367 51.7894H232.401C232.795 51.7894 233.116 51.4682 233.116 51.0734C233.116 50.8809 233.042 50.7028 232.907 50.5714C232.771 50.432 232.593 50.3574 232.401 50.3574H125.367Z" fill="#E6E6E6"/>
<path d="M182.335 50.1187V52.028H125.367C125.104 52.028 124.866 51.923 124.694 51.7464C124.518 51.5746 124.413 51.3359 124.413 51.0734C124.413 50.5483 124.842 50.1187 125.367 50.1187H182.335Z" fill="#2B7A78"/>
<path d="M231.209 46.5389H221.673C220.621 46.5389 219.765 45.6826 219.765 44.6296C219.765 43.5766 220.621 42.7203 221.673 42.7203H231.209C232.261 42.7203 233.116 43.5766 233.116 44.6296C233.116 45.6826 232.261 46.5389 231.209 46.5389Z" fill="#DEF2F1"/>
</g>
<defs>
<clipPath id="clip0_9_88">
<rect width="288" height="292" fill="white"/>
</clipPath>
</defs>
</svg>
